<?xml version="1.0" encoding="UTF-8" standalone="no"?>
<svg
   id="cybertec"
   viewBox="0 0 20 20"
   version="1.1"
   sodipodi:docname="cybertec.svg"
   width="20"
   height="20"
   inkscape:version="1.3.2 (091e20ef0f, 2023-11-25)"
   xmlns:inkscape="http://www.inkscape.org/namespaces/inkscape"
   xmlns:sodipodi="http://sodipodi.sourceforge.net/DTD/sodipodi-0.dtd"
   xmlns="http://www.w3.org/2000/svg"
   xmlns:svg="http://www.w3.org/2000/svg">
  <sodipodi:namedview
     id="namedview1"
     pagecolor="#ffffff"
     bordercolor="#000000"
     borderopacity="0.25"
     inkscape:showpageshadow="2"
     inkscape:pageopacity="0.0"
     inkscape:pagecheckerboard="0"
     inkscape:deskcolor="#d1d1d1"
     inkscape:zoom="21.944693"
     inkscape:cx="5.1493088"
     inkscape:cy="11.278353"
     inkscape:window-width="1920"
     inkscape:window-height="1043"
     inkscape:window-x="3840"
     inkscape:window-y="0"
     inkscape:window-maximized="1"
     inkscape:current-layer="cybertec" />
  <defs
     id="defs1">
    <clipPath
       id="clip-path">
      <rect
         class="cls-1"
         x="69.290001"
         y="36.200001"
         width="454.72"
         height="454.72"
         id="rect1" />
    </clipPath>
  </defs>
  <g
     class="cls-3"
     clip-path="url(#clip-path)"
     id="g12"
     transform="matrix(0.04730866,0,0,0.04730866,-4.0326947,-2.468527)">
    <path
       class="cls-4"
       d="m 265.26,135.62 a 42.49,42.49 0 1 1 -42.48,-42.48 42.48,42.48 0 0 1 42.48,42.48"
       id="path9" />
    <path
       class="cls-4"
       d="M 265.26,391.5 A 42.49,42.49 0 1 1 222.78,349 42.48,42.48 0 0 1 265.26,391.48"
       id="path10" />
    <path
       class="cls-4"
       d="m 486.86,263.56 a 42.49,42.49 0 1 1 -42.48,-42.48 42.48,42.48 0 0 1 42.48,42.48"
       id="path11" />
    <path
       class="cls-5"
       d="m 356,316.79 a 103.54,103.54 0 0 1 0,-106.46 c 20.71,-34.81 39.74,-33.44 51.31,-53.47 a 42.481075,42.481075 0 1 0 -73.58,-42.48 c -11.56,20 -0.87,35.83 -20.65,71.15 -17.73,31.67 -50.91,53.25 -92.2,53.25 -38.69,0 -48.83,-17.7 -72,-17.7 a 42.5,42.5 0 1 0 0,85 c 23.13,0 31.46,-17.16 72,-17.69 41.35,0 74.58,21.53 92.21,53.24 19.68,35.38 9.09,51.13 20.65,71.15 a 42.48,42.48 0 0 0 73.58,-42.47 c -11.57,-20 -30.6,-18.67 -51.31,-53.48"
       id="path12" />
  </g>
</svg>
