<?xml version="1.0" encoding="UTF-8" standalone="no"?>
<!-- Generator: Adobe Illustrator 23.0.2, SVG Export Plug-In . SVG Version: 6.00 Build 0)  -->

<svg
        version="1.1"
        x="0px"
        y="0px"
        viewBox="0 0 20 20"
        xml:space="preserve"
        id="migrator"
        sodipodi:docname="migrator.svg"
        width="20"
        height="20"
        inkscape:version="1.3.2 (091e20ef0f, 2023-11-25)"
        xmlns:inkscape="http://www.inkscape.org/namespaces/inkscape"
        xmlns:sodipodi="http://sodipodi.sourceforge.net/DTD/sodipodi-0.dtd"
        xmlns="http://www.w3.org/2000/svg"
        xmlns:svg="http://www.w3.org/2000/svg"><defs
   id="defs3" />

    <g
            id="g3"
            transform="matrix(0.03564635,0,0,0.03564635,1.2734863,1.36729)"><g
     id="Ebene_1">
	<g
            id="g2">
		<g
                id="g1">
			<path
                    class="st0"
                    d="M 32.59,441.59 V 32 H 59.9 L 237.39,234.06 415.14,32 h 27.31 V 441.59 H 360.53 L 360.26,204.03 237.38,340.56 116.77,205.63 v 237.56 z"
                    id="path1"
                    style="display:inline"/>
		</g>
	</g>
	<path
            class="st1"
            d="M 364.69,102.15 350.38,60.9 508.8,90.73 400.74,210.53 385.8,164.48 c 0,0 -202.5,70.6 -379.77,314.9 -19.5,26.89 90.47,-287.85 358.66,-377.23 z"
            id="path2"/>
</g>
        <g
                id="Ebene_2">
	<path
            class="st0"
            d="M 359.44,202.03 236.57,338.56 113.69,202.03 93.63,218.51 46.97,231.23 31.5,30 H 58.81 L 257,256 295.1,235.48 Z"
            id="path3"/>
</g></g>
</svg>
